<?xml version="1.0" standalone="no"?>
<!DOCTYPE svg PUBLIC "-//W3C//DTD SVG 20010904//EN"
 "http://www.w3.org/TR/2001/REC-SVG-20010904/DTD/svg10.dtd">
<svg version="1.0" xmlns="http://www.w3.org/2000/svg"
 width="1024.000000pt" height="1024.000000pt" viewBox="0 0 1024.000000 1024.000000"
 preserveAspectRatio="xMidYMid meet">

<g transform="translate(0.000000,1024.000000) scale(0.100000,-0.100000)"
fill="#000000" stroke="none">
<path d="M5113 7578 c-6 -7 -50 -87 -98 -178 -48 -91 -138 -259 -200 -375
-155 -290 -345 -653 -345 -659 0 -2 39 -17 88 -31 113 -34 179 -59 277 -108
83 -41 235 -138 256 -163 6 -8 15 -14 19 -14 5 0 55 31 112 69 153 103 317
179 491 227 31 8 57 20 57 26 0 7 -124 246 -276 532 -354 667 -364 686 -368
686 -2 0 -8 -6 -13 -12z"/>
<path d="M3965 6234 c-260 -40 -489 -158 -670 -345 -50 -52 -110 -122 -133
-156 -44 -64 -125 -223 -118 -230 2 -3 48 25 101 61 467 319 1042 369 1517
130 180 -90 292 -178 397 -312 l64 -82 35 53 c48 71 175 194 259 249 160 107
373 192 552 222 123 21 367 21 486 1 242 -42 503 -151 683 -287 30 -22 56 -37
59 -34 11 11 -86 193 -145 273 -363 486 -1078 616 -1637 296 -85 -48 -210
-137 -261 -185 l-32 -30 -77 65 c-299 250 -709 368 -1080 311z"/>
<path d="M3795 5694 c-172 -29 -347 -92 -492 -179 -82 -48 -254 -182 -260
-202 -3 -7 40 12 94 41 114 62 242 114 365 150 101 29 227 56 262 56 l26 0
-29 -46 c-81 -126 -62 -295 43 -398 65 -63 124 -89 215 -94 108 -6 176 21 257
102 69 70 94 126 94 215 0 72 -13 115 -50 175 l-31 48 33 -7 c155 -32 383
-149 466 -237 l23 -25 -44 -59 c-129 -174 -338 -296 -581 -339 -112 -19 -182
-19 -286 1 -69 13 -85 13 -95 2 -14 -14 -355 -651 -355 -661 0 -4 184 -7 409
-7 441 0 506 5 650 55 249 84 446 274 516 496 98 311 -35 581 -382 780 -95 54
-271 114 -395 134 -114 18 -343 18 -453 -1z"/>
<path d="M5995 5696 c-265 -51 -475 -154 -628 -309 -120 -120 -177 -255 -177
-412 1 -330 246 -614 620 -716 82 -22 102 -23 539 -27 l454 -3 -40 73 c-22 40
-104 192 -183 338 -79 146 -145 267 -147 269 -2 3 -27 -1 -56 -8 -206 -49
-441 -8 -652 115 -85 50 -266 219 -280 263 -9 30 17 57 121 127 105 70 223
119 357 149 l29 6 -26 -34 c-87 -114 -72 -298 32 -405 74 -75 128 -97 242 -97
80 0 103 4 145 25 183 89 242 316 124 481 l-20 29 31 0 c45 0 236 -45 343 -80
51 -17 153 -61 227 -97 74 -37 140 -69 145 -71 27 -9 -120 116 -190 163 -145
96 -280 154 -470 202 -84 21 -129 25 -285 29 -128 2 -207 -1 -255 -10z"/>
<path d="M2951 3732 c-15 -29 -321 -807 -321 -817 0 -2 7 -11 16 -19 16 -17
89 -22 111 -8 7 5 30 51 51 103 l38 94 146 5 c209 7 196 12 236 -95 18 -49 38
-95 44 -102 15 -18 103 -17 118 2 7 9 10 25 6 41 -12 47 -296 787 -307 801 -7
8 -33 13 -70 13 -45 0 -60 -4 -68 -18z m133 -350 c31 -78 56 -144 56 -147 0
-3 -54 -5 -120 -5 l-119 0 26 68 c14 37 40 106 57 154 17 48 34 84 38 80 4 -4
32 -71 62 -150z"/>
<path d="M3536 3734 c-14 -13 -16 -65 -16 -419 0 -459 -4 -438 78 -433 38 2
49 8 59 28 9 18 12 127 13 416 0 346 -1 394 -16 408 -21 21 -97 21 -118 0z"/>
<path d="M3807 3732 c-21 -23 -22 -86 -1 -106 12 -13 39 -16 125 -16 l109 0 0
-346 c0 -219 4 -352 10 -365 8 -15 21 -19 59 -19 29 0 53 6 60 14 8 10 12 116
14 362 l2 349 115 5 c63 3 121 9 128 13 6 5 12 27 12 51 0 77 4 76 -327 76
-268 0 -291 -1 -306 -18z"/>
<path d="M4566 3735 c-14 -15 -16 -61 -16 -420 0 -454 -3 -435 74 -435 72 0
76 10 76 204 l0 167 175 -2 175 -1 0 -162 c0 -192 5 -206 75 -206 80 0 79 -10
71 447 -4 272 -9 400 -17 409 -16 19 -94 18 -113 -2 -13 -13 -16 -44 -16 -185
l0 -169 -175 0 -175 0 0 158 c0 191 -5 206 -72 210 -32 2 -50 -2 -62 -13z"/>
<path d="M5364 3725 c-14 -22 -16 -67 -13 -418 3 -315 7 -397 18 -411 12 -14
43 -16 263 -16 153 0 257 4 269 10 15 8 19 21 19 60 0 39 -4 52 -19 60 -12 6
-98 10 -210 10 l-191 0 0 115 0 115 168 0 c117 0 172 4 180 12 7 7 12 33 12
60 0 37 -4 50 -19 58 -11 6 -89 10 -180 10 l-161 0 0 110 0 110 195 0 c182 0
196 1 215 20 24 24 26 67 4 98 -15 22 -18 22 -274 22 l-260 0 -16 -25z"/>
<path d="M6080 3735 c-17 -20 -15 -822 2 -843 7 -8 28 -12 57 -10 68 4 70 10
71 307 0 140 2 257 4 259 2 2 90 -125 195 -282 l191 -286 50 0 c84 0 80 -23
80 431 0 257 -4 407 -10 420 -8 15 -21 19 -59 19 -78 0 -76 7 -73 -314 2 -184
-1 -277 -7 -271 -12 12 -230 343 -319 485 l-64 100 -53 0 c-35 0 -57 -5 -65
-15z"/>
<path d="M7162 3738 c-10 -13 -31 -65 -191 -483 -126 -326 -128 -332 -115
-353 13 -20 98 -29 118 -13 6 5 27 53 46 105 l35 96 172 0 171 0 31 -81 c17
-44 31 -84 31 -88 0 -36 114 -58 140 -26 15 18 14 20 -107 335 -52 135 -112
294 -134 353 -42 118 -56 148 -73 159 -18 13 -113 9 -124 -4z m129 -358 l57
-150 -119 0 -119 0 39 108 c62 169 75 202 80 196 3 -3 31 -72 62 -154z"/>
</g>
</svg>
